<svg xmlns="http://www.w3.org/2000/svg" width="120" height="240" viewBox="0 0 40 80">
  <!-- Frame 4: Back leg forward and bent, front leg back and bent, sideview -->
  <g>
    <!-- Hair -->
    <rect x="12" y="4" width="12" height="4" fill="#c2a15a"/>
    <rect x="12" y="8" width="4" height="4" fill="#c2a15a"/>
    <rect x="20" y="8" width="4" height="2" fill="#c2a15a"/>
    <!-- Back leg (bent forward) -->
    <rect x="12" y="44" width="4" height="12" fill="#1a273a"/>
    <rect x="10" y="56" width="6" height="10" fill="#1a273a"/>
    <rect x="10" y="66" width="4" height="10" fill="#1a273a"/>
    <rect x="10" y="76" width="4" height="4" fill="#222"/>
    <!-- Front leg (bent back) -->
    <rect x="20" y="54" width="2" height="10" fill="#2d3e50"/>
    <rect x="22" y="62" width="4" height="8" fill="#2d3e50"/>
    <rect x="22" y="70" width="4" height="6" fill="#222"/>
    <!-- Suit body -->
    <rect x="10" y="20" width="16" height="22" fill="#3a5a8c"/>
    <!-- Shirt (moved up) -->
    <rect x="14" y="22" width="8" height="7" fill="#fff"/>
    <!-- Tie (moved up) -->
    <rect x="17" y="25" width="2" height="7" fill="#ff0055"/>
    <!-- Head (sideview, neckline filled) -->
    <rect x="12" y="4" width="12" height="14" fill="#ffe0b2"/>
    <rect x="20" y="10" width="2" height="2" fill="#222"/>
    <rect x="23" y="12" width="2" height="2" fill="#e0b080"/>
    <!-- Arms -->
    <rect x="8" y="22" width="4" height="18" fill="#3a5a8c"/>
    <rect x="22" y="22" width="4" height="18" fill="#3a5a8c"/>
    <!-- Hands -->
    <rect x="8" y="38" width="4" height="4" fill="#ffe0b2"/>
    <rect x="22" y="38" width="4" height="4" fill="#ffe0b2"/>
    <!-- Fill neckline (under head, over suit) -->
    <rect x="16" y="18" width="8" height="4" fill="#ffe0b2"/>
  </g>
</svg>
