<svg xmlns="http://www.w3.org/2000/svg" width="120" height="240" viewBox="0 0 40 80">
  <!-- Frame 1: Standing, sideview face, front body, legs together -->
  <g id="side1">
    <rect x="10" y="70" width="6" height="6" fill="#222"/>
    <rect x="24" y="70" width="6" height="6" fill="#222"/>
    <rect x="12" y="40" width="4" height="30" fill="#2d3e50"/>
    <rect x="24" y="40" width="4" height="30" fill="#2d3e50"/>
    <rect x="10" y="20" width="20" height="22" fill="#3a5a8c"/>
    <rect x="16" y="28" width="8" height="8" fill="#fff"/>
    <rect x="19" y="30" width="2" height="8" fill="#ff0055"/>
    <rect x="14" y="4" width="12" height="14" fill="#ffe0b2"/>
    <rect x="23" y="10" width="2" height="2" fill="#222"/>
    <rect x="26" y="12" width="2" height="2" fill="#e0b080"/>
    <rect x="6" y="22" width="4" height="18" fill="#3a5a8c"/>
    <rect x="30" y="22" width="4" height="18" fill="#3a5a8c"/>
    <rect x="6" y="38" width="4" height="4" fill="#ffe0b2"/>
    <rect x="30" y="38" width="4" height="4" fill="#ffe0b2"/>
  </g>
  <!-- Frame 2: Left leg/arm forward (leg bent) -->
  <g id="side2" style="display:none">
    <rect x="10" y="74" width="6" height="2" fill="#222"/>
    <rect x="24" y="70" width="6" height="6" fill="#222"/>
    <rect x="12" y="40" width="4" height="18" fill="#2d3e50"/>
    <rect x="10" y="58" width="6" height="8" fill="#2d3e50"/>
    <rect x="24" y="40" width="4" height="30" fill="#2d3e50"/>
    <rect x="10" y="20" width="20" height="22" fill="#3a5a8c"/>
    <rect x="16" y="28" width="8" height="8" fill="#fff"/>
    <rect x="19" y="30" width="2" height="8" fill="#ff0055"/>
    <rect x="14" y="4" width="12" height="14" fill="#ffe0b2"/>
    <rect x="23" y="10" width="2" height="2" fill="#222"/>
    <rect x="26" y="12" width="2" height="2" fill="#e0b080"/>
    <rect x="4" y="24" width="6" height="14" fill="#3a5a8c"/>
    <rect x="30" y="22" width="4" height="18" fill="#3a5a8c"/>
    <rect x="4" y="38" width="6" height="4" fill="#ffe0b2"/>
    <rect x="30" y="38" width="4" height="4" fill="#ffe0b2"/>
  </g>
  <!-- Frame 3: Both legs out (bent) -->
  <g id="side3" style="display:none">
    <rect x="10" y="74" width="6" height="2" fill="#222"/>
    <rect x="24" y="74" width="6" height="2" fill="#222"/>
    <rect x="12" y="40" width="4" height="18" fill="#2d3e50"/>
    <rect x="10" y="58" width="6" height="8" fill="#2d3e50"/>
    <rect x="24" y="40" width="4" height="18" fill="#2d3e50"/>
    <rect x="26" y="58" width="6" height="8" fill="#2d3e50"/>
    <rect x="10" y="20" width="20" height="22" fill="#3a5a8c"/>
    <rect x="16" y="28" width="8" height="8" fill="#fff"/>
    <rect x="19" y="30" width="2" height="8" fill="#ff0055"/>
    <rect x="14" y="4" width="12" height="14" fill="#ffe0b2"/>
    <rect x="23" y="10" width="2" height="2" fill="#222"/>
    <rect x="26" y="12" width="2" height="2" fill="#e0b080"/>
    <rect x="4" y="24" width="6" height="14" fill="#3a5a8c"/>
    <rect x="30" y="24" width="6" height="14" fill="#3a5a8c"/>
    <rect x="4" y="38" width="6" height="4" fill="#ffe0b2"/>
    <rect x="30" y="38" width="6" height="4" fill="#ffe0b2"/>
  </g>
  <!-- Frame 4: Right leg/arm forward (leg bent) -->
  <g id="side4" style="display:none">
    <rect x="10" y="70" width="6" height="6" fill="#222"/>
    <rect x="24" y="74" width="6" height="2" fill="#222"/>
    <rect x="12" y="40" width="4" height="30" fill="#2d3e50"/>
    <rect x="24" y="40" width="4" height="18" fill="#2d3e50"/>
    <rect x="26" y="58" width="6" height="8" fill="#2d3e50"/>
    <rect x="10" y="20" width="20" height="22" fill="#3a5a8c"/>
    <rect x="16" y="28" width="8" height="8" fill="#fff"/>
    <rect x="19" y="30" width="2" height="8" fill="#ff0055"/>
    <rect x="14" y="4" width="12" height="14" fill="#ffe0b2"/>
    <rect x="23" y="10" width="2" height="2" fill="#222"/>
    <rect x="26" y="12" width="2" height="2" fill="#e0b080"/>
    <rect x="6" y="22" width="4" height="18" fill="#3a5a8c"/>
    <rect x="32" y="24" width="6" height="14" fill="#3a5a8c"/>
    <rect x="6" y="38" width="4" height="4" fill="#ffe0b2"/>
    <rect x="32" y="38" width="6" height="4" fill="#ffe0b2"/>
  </g>
</svg>
